<?xml version="1.0" encoding="utf-8"?>
<!-- Generator: Adobe Illustrator 24.0.2, SVG Export Plug-In . SVG Version: 6.00 Build 0)  -->
<svg version="1.1"
	 id="Layer_1" image-rendering="optimizeQuality" shape-rendering="geometricPrecision" text-rendering="geometricPrecision"
	 xmlns="http://www.w3.org/2000/svg" xmlns:xlink="http://www.w3.org/1999/xlink" x="0px" y="0px" viewBox="0 0 64 64"
	 enable-background="new 0 0 64 64" xml:space="preserve">
<path fill-rule="evenodd" clip-rule="evenodd" fill="#C4C4C4" d="M32.6,27.4v11h18.1c-0.7,4.7-5.5,13.8-18.1,13.8
	c-10.9,0-19.8-9-19.8-20.2c0-11.2,8.9-20.2,19.8-20.2c6.2,0,10.4,2.7,12.8,4.9l8.7-8.4C48.5,3.2,41.3,0,32.6,0
	c-17.7,0-32,14.3-32,32s14.3,32,32,32c18.5,0,30.7-13,30.7-31.3c0-2.1-0.2-3.7-0.5-5.3L32.6,27.4L32.6,27.4L32.6,27.4z"/>
</svg>
