<?xml version="1.0" encoding="utf-8"?>
<!-- Generator: Adobe Illustrator 24.0.2, SVG Export Plug-In . SVG Version: 6.00 Build 0)  -->
<svg version="1.1" id="Layer_1" xmlns="http://www.w3.org/2000/svg" xmlns:xlink="http://www.w3.org/1999/xlink" x="0px" y="0px"
	 viewBox="0 0 122.9 103.6" style="enable-background:new 0 0 122.9 103.6;" xml:space="preserve">
<g>
	<path d="M10.5,28.6h99.3c2.6,0,4.7-3.1,4.7-6.9c0-3.8-2.1-6.9-4.7-6.9H10.5c-2.6,0-4.7,3.1-4.7,6.9C5.7,25.5,7.9,28.6,10.5,28.6z"
		/>
	<path d="M109.8,75H10.5c-2.6,0-4.7,3.1-4.7,6.9c0,3.8,2.1,6.9,4.7,6.9h99.3c2.6,0,4.7-3.1,4.7-6.9C114.5,78.1,112.4,75,109.8,75z"
		/>
	<path d="M109.8,44.3H10.5c-2.6,0-4.7,3.1-4.7,6.9c0,3.8,2.1,6.9,4.7,6.9h99.3c2.6,0,4.7-3.1,4.7-6.9
		C114.5,47.4,112.4,44.3,109.8,44.3z"/>
</g>
</svg>
