<svg width="41" height="39" viewBox="0 0 41 39" fill="none" xmlns="http://www.w3.org/2000/svg">
<path d="M3 19.7761C3 29.8409 11.2823 38 21.4989 38C31.7156 38 39.8454 29.8398 39.9979 19.7761C40.1527 9.55887 31.8715 1.02055 21.4989 1.00002C13.7251 0.984626 7.99045 4.56255 4.68172 11.4926" stroke="#C4C4C4" stroke-width="1.5"/>
<path d="M4.49823 13.188C4.11862 13.3595 3.67297 13.1944 3.50285 12.8193L0.730635 6.70658C0.560518 6.33148 0.730352 5.88841 1.10997 5.71697C1.48959 5.54552 1.93523 5.71063 2.10535 6.08573L4.56954 11.5192L10.0684 9.03584C10.448 8.8644 10.8937 9.0295 11.0638 9.40461C11.2339 9.77971 11.0641 10.2228 10.6844 10.3942L4.49823 13.188ZM5.28361 11.7533L4.89405 12.7696L3.48637 12.2481L3.87593 11.2318L5.28361 11.7533Z" fill="#C4C4C4"/>
<line x1="20.5" y1="12.5" x2="20.5" y2="22.5448" stroke="#C4C4C4" stroke-linecap="round"/>
<line x1="0.5" y1="-0.5" x2="9.56845" y2="-0.5" transform="matrix(0.925715 0.378221 -0.388015 0.921653 20 23.0448)" stroke="#C4C4C4" stroke-linecap="round"/>
</svg>
