<?xml version="1.0" encoding="utf-8"?>
<!-- Generator: Adobe Illustrator 24.0.2, SVG Export Plug-In . SVG Version: 6.00 Build 0)  -->
<svg version="1.1" id="Layer_1" xmlns="http://www.w3.org/2000/svg" xmlns:xlink="http://www.w3.org/1999/xlink" x="0px" y="0px"
	 viewBox="0 0 100.3 100.3" enable-background="new 0 0 100.3 100.3" xml:space="preserve">
<g>
	<path fill="#C4C4C4" d="M50,30.5c-10.2,0-18.5,8.3-18.5,18.5S39.8,67.5,50,67.5S68.5,59.2,68.5,49S60.2,30.5,50,30.5z M50,64.5
		c-8.5,0-15.5-7-15.5-15.5s7-15.5,15.5-15.5s15.5,7,15.5,15.5S58.5,64.5,50,64.5z"/>
	<path fill="#C4C4C4" d="M95.2,41.5l-12-1.8c-0.7-2.2-1.5-4.4-2.7-6.4l7.2-9.7c0.4-0.6,0.4-1.4-0.1-2l-9.2-9.2
		c-0.5-0.5-1.4-0.6-2-0.1l-9.7,7.2c-2.1-1.1-4.2-2-6.5-2.7L58.5,4.8C58.4,4,57.8,3.5,57,3.5H44c-0.7,0-1.4,0.5-1.5,1.3l-1.8,11.9
		c-2.2,0.7-4.4,1.6-6.5,2.7l-9.7-7.2c-0.6-0.4-1.4-0.4-2,0.1l-9.2,9.2c-0.5,0.5-0.6,1.4-0.1,2l7.2,9.7c-1.1,2.1-2,4.2-2.7,6.4
		l-12,1.8C5,41.6,4.5,42.2,4.5,43v13c0,0.7,0.5,1.4,1.3,1.5l12,1.8c0.7,2.2,1.6,4.3,2.6,6.3l-7.2,9.8c-0.4,0.6-0.4,1.4,0.1,2
		l9.2,9.2c0.5,0.5,1.4,0.6,2,0.1l9.8-7.3c2,1.1,4.1,2,6.3,2.6l1.8,12.1c0.1,0.7,0.7,1.3,1.5,1.3h13c0.7,0,1.4-0.5,1.5-1.3l1.8-12.1
		c2.2-0.7,4.3-1.5,6.3-2.6l9.8,7.3c0.6,0.4,1.4,0.4,2-0.1l9.2-9.2c0.5-0.5,0.6-1.4,0.1-2l-7.2-9.8c1.1-2,2-4.1,2.6-6.3l12-1.8
		c0.7-0.1,1.3-0.7,1.3-1.5V43C96.5,42.2,96,41.6,95.2,41.5z M93.5,54.7l-11.7,1.8c-0.6,0.1-1.1,0.5-1.2,1.1
		c-0.7,2.6-1.7,5.1-3.1,7.4c-0.3,0.5-0.3,1.2,0.1,1.6l7,9.5l-7.4,7.4l-9.6-7.1c-0.5-0.4-1.1-0.4-1.6-0.1c-2.3,1.3-4.8,2.4-7.4,3.1
		c-0.6,0.2-1,0.6-1.1,1.2l-1.8,11.8H45.3l-1.8-11.8c-0.1-0.6-0.5-1.1-1.1-1.2c-2.6-0.7-5.1-1.7-7.4-3.1c-0.5-0.3-1.2-0.3-1.6,0.1
		l-9.6,7.1l-7.4-7.4l7-9.5c0.4-0.5,0.4-1.1,0.1-1.6c-1.4-2.3-2.4-4.8-3.1-7.4c-0.2-0.6-0.6-1-1.2-1.1L7.5,54.7V44.3l11.6-1.8
		c0.6-0.1,1.1-0.5,1.2-1.1c0.7-2.6,1.7-5.1,3.1-7.5c0.3-0.5,0.3-1.2-0.1-1.6l-7-9.5l7.4-7.4l9.4,7c0.5,0.4,1.1,0.4,1.6,0.1
		c2.4-1.4,4.9-2.4,7.5-3.1c0.6-0.2,1-0.6,1.1-1.2l1.8-11.6h10.5l1.8,11.6c0.1,0.6,0.5,1.1,1.1,1.2c2.6,0.7,5.2,1.8,7.6,3.1
		c0.5,0.3,1.2,0.3,1.6-0.1l9.4-7l7.4,7.4l-7,9.5c-0.4,0.5-0.4,1.1-0.1,1.6c1.4,2.4,2.4,4.9,3.1,7.5c0.2,0.6,0.6,1,1.2,1.1l11.7,1.8
		L93.5,54.7L93.5,54.7z"/>
</g>
</svg>
