<svg width="37" height="37" viewBox="0 0 37 37" fill="none" xmlns="http://www.w3.org/2000/svg">
<g clip-path="url(#clip0_31_80)">
<path d="M1.04965 20.0625C-0.834945 18.2018 -0.238556 14.4326 3.0058 14.4326H11.5461C11.2121 12.6196 10.7589 9.61379 10.7589 9.35138C10.9497 6.67956 12.6435 3.41134 12.715 3.26821C13.0251 2.69568 14.5996 1.90844 16.1741 2.24242C18.2257 2.67182 18.4404 3.98388 18.4165 4.34171C18.4165 4.34171 18.3211 7.92005 18.3211 8.87427C19.2992 11.0213 22.6867 16.675 23.6886 17.1044C23.9271 16.9613 24.2134 16.8659 24.4997 16.8659H35.354C36.2605 16.8659 37 17.6054 37 18.5119V33.4217C36.9284 34.2327 36.2605 34.853 35.4494 34.853H25.764C24.9052 34.853 24.2134 34.1612 24.2134 33.3024V32.8014C24.2134 32.8014 23.8556 32.7776 23.6886 32.873C23.0683 33.2785 22.305 33.7556 21.2792 33.7556H6.82269C1.40748 33.7556 2.00387 28.9607 2.48098 28.2927C1.57447 27.2908 1.00193 25.5493 1.76531 24.1657C1.16892 23.5693 0.119278 21.8517 1.04965 20.0625ZM26.0741 33.3024H35.4494V18.4165H26.0741V33.3024ZM3.57833 19.9194L3.67376 20.2772C1.19278 20.9929 2.50483 23.8556 4.294 24.0464L4.38943 24.4042C2.00387 25.0006 3.14893 27.9587 5.00967 28.1734L5.10509 28.5313C3.14894 28.8414 3.62605 32.1812 6.58414 32.1812H21.303C22.3527 32.1812 23.283 30.9884 24.0464 30.9884H24.7144V19.5377C23.8794 19.0129 22.8536 18.3449 22.305 17.8678C21.2315 16.9613 16.842 9.85235 16.842 8.96969C16.842 8.08703 16.9375 4.24629 16.9375 4.24629C16.9375 4.24629 16.0787 3.12508 14.1464 3.93617C14.1464 3.93617 12.5242 6.96582 12.3572 9.39909C12.3572 9.39909 13.0967 14.3849 13.4784 15.9355H3.26821C0.763379 15.9832 1.24049 19.5616 3.57833 19.9194Z" fill="#C4C4C4"/>
</g>
<defs>
<clipPath id="clip0_31_80">
<rect width="37" height="37" fill="white" transform="matrix(-1 0 0 1 37 0)"/>
</clipPath>
</defs>
</svg>
