<?xml version="1.0" encoding="utf-8"?>
<!-- Generator: Adobe Illustrator 24.0.2, SVG Export Plug-In . SVG Version: 6.00 Build 0)  -->
<svg version="1.1" id="Layer_1" xmlns="http://www.w3.org/2000/svg" xmlns:xlink="http://www.w3.org/1999/xlink" x="0px" y="0px"
	 viewBox="0 0 671 683.2" enable-background="new 0 0 671 683.2" xml:space="preserve">
<g>
	<rect x="272.8" y="66.1" fill="none" width="126.7" height="8.1"/>
	<path fill="none" d="M146.7,140.2l26.9,474.4H499l26.5-474.4L146.7,140.2z M259.3,590.1c-5.9,6.6-13.9,10.5-22.7,11
		c-0.7,0-1.3,0-1.9,0c-17.5,0-31.9-13.7-32.9-31.1l-21.5-379.6c-0.5-8.8,2.4-17.3,8.3-23.8c5.9-6.6,13.9-10.5,22.7-11h0.1
		c18.1-0.8,33.7,13.1,34.7,31.1l21.5,379.6C268.2,575.1,265.2,583.5,259.3,590.1z M369.1,568.1c0,18.2-14.8,33-33,33
		c-8.8,0-17.1-3.4-23.3-9.7c-6.2-6.2-9.7-14.5-9.7-23.3V188.5c0-18.2,14.8-33,33-33s33,14.8,33,33V568.1z M491.3,190.4L469.7,570
		c-1,17.4-15.4,31.1-32.9,31.1c-0.6,0-1.2,0-1.8,0h-0.1c-18.1-1-32.1-16.6-31-34.8l21.5-379.6c1-17.9,16.6-31.8,34.6-31.1h0.2
		c8.8,0.5,16.9,4.4,22.7,11C488.8,173.2,491.7,181.6,491.3,190.4z"/>
	<path fill="#FFFFFF" stroke="#FFFFFF" stroke-width="0.55" stroke-miterlimit="10" d="M643.3,99.2h-75.6c-2.8,0-5.6,0-8.4,0H440.4
		V33.1c0-4.4-3.6-8-8-8H239.8c-4.4,0-8,3.6-8,8v66.1H113c-1.2,0-6.8,0-7.7,0H29c-4.4,0-8,3.6-8,8s3.6,8,8,8h75.3L134.5,648
		c0.2,4.2,3.7,7.5,8,7.5h387.7c4.2,0,7.7-3.3,8-7.5L568,115.2h75.4c4.4,0,8-3.6,8-8S647.7,99.2,643.3,99.2z M247.8,41.1h176.7v58.1
		H247.8V41.1z M522.7,639.5H150l-29.8-524.4h431.7L522.7,639.5z"/>
	<path fill="#FFFFFF" stroke="#FFFFFF" stroke-width="0.55" stroke-miterlimit="10" d="M221.1,188.1c-0.2-4.3-4.1-7.7-8.5-7.5
		c-2.1,0.1-4,1.1-5.4,2.6c-1.4,1.6-2.1,3.6-2,5.8l21.5,379.6c0.2,4.2,3.7,7.5,7.9,7.5c0.2,0,0.4,0,0.6,0c2-0.1,4-1.1,5.4-2.6
		c1.4-1.6,2.1-3.6,2-5.8L221.1,188.1z"/>
	<path fill="#FFFFFF" stroke="#FFFFFF" stroke-width="0.55" stroke-miterlimit="10" d="M464.3,183.2c-1.4-1.6-3.3-2.5-5.4-2.6
		c-4.4-0.1-8.3,3.2-8.5,7.5l-21.5,379.6c-0.2,4.4,3.1,8.1,7.4,8.4c0.2,0,0.3,0,0.5,0c4.2,0,7.7-3.3,7.9-7.5L466.3,189
		C466.4,186.9,465.7,184.8,464.3,183.2z"/>
	<path fill="#FFFFFF" stroke="#FFFFFF" stroke-width="0.55" stroke-miterlimit="10" d="M336.1,180.6c-4.4,0-8,3.6-8,8v379.6
		c0,2.1,0.8,4.1,2.3,5.6s3.5,2.3,5.6,2.3c4.4,0,8-3.6,8-8V188.5C344.1,184.1,340.5,180.6,336.1,180.6z"/>
</g>
</svg>
