<?xml version="1.0" encoding="utf-8"?>
<!-- Generator: Adobe Illustrator 24.0.2, SVG Export Plug-In . SVG Version: 6.00 Build 0)  -->
<svg version="1.1" id="Layer_1" xmlns="http://www.w3.org/2000/svg" xmlns:xlink="http://www.w3.org/1999/xlink" x="0px" y="0px"
	 viewBox="0 0 31 39" enable-background="new 0 0 31 39" xml:space="preserve">
<path fill="none" stroke="#FFFFFF" stroke-width="1.5" d="M20.6,9v7.5l4,6 M20.6,9h1.5V5.5h-13V9h1.5 M20.6,9h-10 M10.6,9v7.5
	c-1.1,1.5-2.5,3.7-4,6 M6.6,22.5C4,26.6,1.3,31,1.1,32.5c-0.4,2.4,0.5,5.5,3,5.5c2.5,0,21.5,0,22.5,0s2.2-0.9,3-2.5
	c0.8-1.6,0.5-4,0-5.5s-5-7.5-5-7.5 M6.6,22.5h18"/>
<circle fill="none" stroke="#FFFFFF" stroke-width="1.25" cx="15.1" cy="14" r="2.4"/>
<circle fill="none" stroke="#FFFFFF" stroke-width="1.25" cx="12.1" cy="28" r="2.4"/>
<circle fill="none" stroke="#FFFFFF" stroke-width="1.25" cx="20.1" cy="32" r="3.4"/>
<circle fill="none" stroke="#FFFFFF" stroke-width="1.25" cx="18.1" cy="3" r="2.4"/>
</svg>
