<svg width="31" height="39" viewBox="0 0 31 39" fill="none" xmlns="http://www.w3.org/2000/svg">
<path d="M20.591 9V16.5L24.591 22.5M20.591 9H22.091V5.5H9.091V9H10.591M20.591 9H10.591M10.591 9V16.5C9.51849 18.0492 8.04975 20.2289 6.58691 22.5M6.58691 22.5C3.95795 26.5815 1.348 30.958 1.091 32.5C0.691005 34.9 1.59511 38 4.091 38C6.5869 38 25.591 38 26.591 38C27.591 38 28.791 37.1 29.591 35.5C30.391 33.9 30.091 31.5 29.591 30C29.091 28.5 24.591 22.5 24.591 22.5M6.58691 22.5H24.591" stroke="#B5B7BC" stroke-width="1.5"/>
<circle cx="15.091" cy="14" r="2.375" stroke="#B5B7BC" stroke-width="1.25"/>
<circle cx="12.091" cy="28" r="2.375" stroke="#B5B7BC" stroke-width="1.25"/>
<circle cx="20.091" cy="32" r="3.375" stroke="#B5B7BC" stroke-width="1.25"/>
<circle cx="18.091" cy="3" r="2.375" stroke="#B5B7BC" stroke-width="1.25"/>
</svg>
